# xmcd
#
# Track frame offsets:
#	150
#	17412
#	30192
#	47162
#	62123
#	81314
#	95333
#	109957
#	124799
#	138411
#	153336
#	166789
#	183492
#	196116
#	211090
#	223188
#	237791
#	253370
#
# Disc length: 3597 seconds
#
# Revision: 1
# Processed by: cddbd v1.5.2PL0 Copyright (c) Steve Scherf et al.
# Submitted via: audiograbber 1.82.02
#
DISCID=f20e0b12
DTITLE=Various Artist  - Country Radio - May 2015
DYEAR=2015
DGENRE=Country
TTITLE0=Blake Shelton - Sangria
TTITLE1=SaraBeth - I'm Sick Of It
TTITLE2=Jason Aldean - Tonight Looks Good On You
TTITLE3=Jana Kramer - I Got The Boy
TTITLE4=Bryan Mayer - This Is Me
TTITLE5=Joanna Mosca - Hand Out The Window
TTITLE6=Lacs - God Bless A Country Girl
TTITLE7=Casey James - Fall Apart
TTITLE8=Chase Bryant - Little Bit Of You
TTITLE9=Tyler Steel - Every One Of You
TTITLE10=RaeLynn - For A Boy
TTITLE11=Striking Matches - Hanging On A Lie
TTITLE12=Sarah Dunn Band - Bye Bye
TTITLE13=Sunny Sweeney (Ft. Will Hoge) - My Bed
TTITLE14=Eli Young Band - Turn It On
TTITLE15=Kacey Musgraves - Biscuits
TTITLE16=LoCash - I Love This Life
TTITLE17=George Ducas - LoveStruck
EXTD=
EXTT0=
EXTT1=
EXTT2=
EXTT3=
EXTT4=
EXTT5=
EXTT6=
EXTT7=
EXTT8=
EXTT9=
EXTT10=
EXTT11=
EXTT12=
EXTT13=
EXTT14=
EXTT15=
EXTT16=
EXTT17=
PLAYORDER=
